Coordinates
nRows=150
nColumns=2
inDegrees=yes
endheader
time	ankle_angle_r	
2.93448	 -5.191045	
3.00605	 -5.178972	
3.07762	 -5.133592	
3.14919	 -5.145274	
3.22077	 -5.188897	
3.29234	 -5.180324	
3.36391	 -5.175998	
3.43548	 -5.229775	
3.50706	 -5.204632	
3.57863	 -5.120313	
3.6502	 -5.139918	
3.72177	 -5.186288	
3.79335	 -5.191058	
3.86492	 -5.167132	
3.93649	 -5.145497	
4.00806	 -5.192246	
4.07964	 -5.242106	
4.15121	 -5.234048	
4.22278	 -5.208867	
4.29435	 -5.205150	
4.36593	 -5.194626	
4.4375	 -5.165777	
4.50907	 -5.199979	
4.58065	 -5.271686	
4.65222	 -5.273892	
4.72379	 -5.250158	
4.79536	 -5.273580	
4.86694	 -5.286951	
4.93851	 -5.272272	
5.01008	 -5.262894	
5.08165	 -5.271243	
5.15323	 -5.291066	
5.2248	 -5.264103	
5.29637	 -5.238799	
5.36794	 -5.275303	
5.43952	 -5.295903	
5.51109	 -5.242428	
5.58266	 -5.198425	
5.65423	 -5.235152	
5.72581	 -5.203920	
5.79738	 -5.078104	
5.86895	 -5.035602	
5.94052	 -5.066856	
6.0121	 -5.053641	
6.08367	 -5.007524	
6.15524	 -5.022542	
6.22681	 -5.073738	
6.29839	 -5.060322	
6.36996	 -5.012339	
6.44153	 -5.042172	
6.5131	 -5.124536	
6.58468	 -5.115037	
6.65625	 -5.085832	
6.72782	 -5.170553	
6.7994	 -5.258269	
6.87097	 -5.263550	
6.94254	 -5.226463	
7.01411	 -5.216468	
7.08569	 -5.266214	
7.15726	 -5.290116	
7.22883	 -5.254411	
7.3004	 -5.260539	
7.37198	 -5.316374	
7.44355	 -5.308750	
7.51512	 -5.262319	
7.58669	 -5.263662	
7.65827	 -5.294259	
7.72984	 -5.294312	
7.80141	 -5.252833	
7.87298	 -5.254666	
7.94456	 -5.287434	
8.01613	 -5.270861	
8.0877	 -5.243502	
8.15927	 -5.267300	
8.23085	 -5.301448	
8.30242	 -5.273299	
8.37399	 -5.257835	
8.44556	 -5.265817	
8.51714	 -5.218856	
8.58871	 -5.163079	
8.66028	 -5.141469	
8.73185	 -5.135336	
8.80343	 -5.076825	
8.875	 -5.036160	
8.94657	 -5.118724	
9.01815	 -5.206212	
9.08972	 -5.204944	
9.16129	 -5.179242	
9.23286	 -5.224717	
9.30444	 -5.273213	
9.37601	 -5.249927	
9.44758	 -5.226660	
9.51915	 -5.241419	
9.59073	 -5.293759	
9.6623	 -5.309744	
9.73387	 -5.253882	
9.80544	 -5.203856	
9.87702	 -5.208082	
9.94859	 -5.219733	
10.0202	 -5.178824	
10.0917	 -5.140554	
10.1633	 -5.141587	
10.2349	 -5.148926	
10.3065	 -5.106097	
10.378	 -5.052484	
10.4496	 -5.080901	
10.5212	 -5.085221	
10.5927	 -5.033014	
10.6643	 -5.057651	
10.7359	 -5.129404	
10.8075	 -5.125912	
10.879	 -5.110427	
10.9506	 -5.183523	
11.0222	 -5.209424	
11.0937	 -5.136189	
11.1653	 -5.096950	
11.2369	 -5.155835	
11.3085	 -5.270073	
11.38	 -5.295787	
11.4516	 -5.258663	
11.5232	 -5.276511	
11.5948	 -5.299773	
11.6663	 -5.274991	
11.7379	 -5.244669	
11.8095	 -5.287262	
11.881	 -5.320266	
11.9526	 -5.275582	
12.0242	 -5.257790	
12.0958	 -5.278642	
12.1673	 -5.276371	
12.2389	 -5.253252	
12.3105	 -5.263168	
12.3821	 -5.249733	
12.4536	 -5.191578	
12.5252	 -5.210827	
12.5968	 -5.257239	
12.6683	 -5.236576	
12.7399	 -5.188860	
12.8115	 -5.185759	
12.8831	 -5.202850	
12.9546	 -5.165786	
13.0262	 -5.133971	
13.0978	 -5.144264	
13.1694	 -5.178758	
13.2409	 -5.219039	
13.3125	 -5.209483	
13.3841	 -5.188889	
13.4556	 -5.222581	
13.5272	 -5.230280	
13.5988	 -5.119606	
